# xmcd
#
# Track frame offsets:
#	150
#	14194
#	31287
#	49232
#	68013
#	84669
#	95396
#	110416
#	129188
#	146030
#	161300
#	179023
#	195669
#	214264
#	225802
#	242356
#	258978
#	274732
#
# Disc length: 3905 seconds
#
# Revision: 0
# Processed by: cddbd v1.5.2PL0 Copyright (c) Steve Scherf et al.
# Submitted via: EasyCDDAExtractor 11.0.2.1
#
DISCID=f40f3f12
DTITLE=Seth Gueko - Patate de forain
DYEAR=2007
DGENRE=Rap fr
TTITLE0=Pied De Biche
TTITLE1=Les Fils De Jacques Mess
TTITLE2=Le Bracage Du Siecle Feat Esco
TTITLE3=Hein Mon Zin-Cou
TTITLE4=Alias Feat Rim-K (113)
TTITLE5=Des Que
TTITLE6=On Nique Tout La
TTITLE7=Merci Chirac
TTITLE8=J'marche Avec Ma Clique Feat D
TTITLE9=Destins Croises
TTITLE10=Chevalier De Ciment Feat Farag
TTITLE11=Guigui Golden Gun
TTITLE12=Caillera-Caillera Feat Alpha 5
TTITLE13=MC M16 Feat Farage
TTITLE14=Chiale Pas
TTITLE15=Bizy Dans Les Diez Feat Ol'kai
TTITLE16=A Mes Yeux
TTITLE17=Micro Ouvert Paris Feat Seven
EXTD=
EXTT0=
EXTT1=
EXTT2=
EXTT3=
EXTT4=
EXTT5=
EXTT6=
EXTT7=
EXTT8=
EXTT9=
EXTT10=
EXTT11=
EXTT12=
EXTT13=
EXTT14=
EXTT15=
EXTT16=
EXTT17=
PLAYORDER=
